<svg width="41" height="38" viewBox="0 0 41 38" fill="none" xmlns="http://www.w3.org/2000/svg">
<path d="M18.625 11.6812C16.4312 10.9125 14.875 8.8125 14.875 6.375C14.875 4.88316 15.4676 3.45242 16.5225 2.39752C17.5774 1.34263 19.0081 0.75 20.5 0.75C21.9918 0.75 23.4225 1.34263 24.4774 2.39752C25.5323 3.45242 26.125 4.88316 26.125 6.375C26.125 8.83125 24.55 10.9125 22.375 11.6812V16.95C21.775 16.7812 21.1562 16.6875 20.5 16.6875C19.8437 16.6875 19.225 16.7812 18.625 16.95V11.6812ZM32.3125 36.5625C30.175 35.3438 29.1625 32.9625 29.575 30.675L25 28.0312C25.9 27.1687 26.575 26.0625 26.875 24.7875L31.45 27.4312C33.2125 25.9125 35.8 25.6125 37.9187 26.8312C40.6187 28.3875 41.5375 31.8188 39.9812 34.5C38.425 37.2 34.9937 38.1188 32.3125 36.5625ZM3.06246 26.8125C5.18121 25.5938 7.76871 25.9125 9.53121 27.4125L14.125 24.7688C14.425 26.0625 15.0812 27.15 16 28.0125L11.4062 30.6563C11.8375 32.9438 10.8062 35.3438 8.68746 36.5625C5.98746 38.1188 2.55621 37.2 0.999957 34.5C-0.556293 31.8188 0.362457 28.3687 3.06246 26.8125ZM24.25 23.25C24.25 24.2446 23.8549 25.1984 23.1516 25.9016C22.4483 26.6049 21.4945 27 20.5 27C18.4187 27 16.75 25.3125 16.75 23.25C16.75 22.2554 17.145 21.3016 17.8483 20.5984C18.5516 19.8951 19.5054 19.5 20.5 19.5C22.5812 19.5 24.25 21.1875 24.25 23.25ZM29.875 23.25L29.8187 24.3187L27.0625 22.7062C26.875 20.7 25.8062 18.9562 24.25 17.85V14.6437C27.5687 16.1062 29.875 19.4062 29.875 23.25ZM26.0687 30.8063C24.5125 31.95 22.5812 32.625 20.5 32.625C18.4187 32.625 16.4875 31.95 14.9312 30.75L17.6875 29.1938C18.55 29.5875 19.5062 29.8125 20.5 29.8125C21.4937 29.8125 22.4312 29.5875 23.3125 29.1938L26.0687 30.8063ZM11.1812 24.3L11.125 23.25C11.125 19.4062 13.4312 16.1062 16.75 14.6625V17.8687C15.1937 18.9562 14.125 20.7 13.9375 22.6875L11.1812 24.3Z" fill="black"/>
</svg>
