<svg width="41" height="37" viewBox="0 0 41 37" fill="none" xmlns="http://www.w3.org/2000/svg">
<path d="M18.382 10.9312C16.1883 10.1625 14.632 8.0625 14.632 5.625C14.632 4.13316 15.2247 2.70242 16.2796 1.64752C17.3345 0.592632 18.7652 0 20.257 0C21.7489 0 23.1796 0.592632 24.2345 1.64752C25.2894 2.70242 25.882 4.13316 25.882 5.625C25.882 8.08125 24.307 10.1625 22.132 10.9312V16.2C21.532 16.0312 20.9133 15.9375 20.257 15.9375C19.6008 15.9375 18.982 16.0312 18.382 16.2V10.9312ZM32.0695 35.8125C29.932 34.5938 28.9195 32.2125 29.332 29.925L24.757 27.2812C25.657 26.4187 26.332 25.3125 26.632 24.0375L31.207 26.6812C32.9695 25.1625 35.557 24.8625 37.6758 26.0812C40.3758 27.6375 41.2945 31.0688 39.7383 33.75C38.182 36.45 34.7508 37.3688 32.0695 35.8125ZM2.81954 26.0625C4.93829 24.8438 7.52579 25.1625 9.28829 26.6625L13.882 24.0188C14.182 25.3125 14.8383 26.4 15.757 27.2625L11.1633 29.9063C11.5945 32.1938 10.5633 34.5938 8.44454 35.8125C5.74454 37.3688 2.31329 36.45 0.757037 33.75C-0.799213 31.0688 0.119537 27.6187 2.81954 26.0625ZM24.007 22.5C24.007 23.4946 23.6119 24.4484 22.9087 25.1516C22.2054 25.8549 21.2516 26.25 20.257 26.25C18.1758 26.25 16.507 24.5625 16.507 22.5C16.507 21.5054 16.9021 20.5516 17.6054 19.8484C18.3086 19.1451 19.2625 18.75 20.257 18.75C22.3383 18.75 24.007 20.4375 24.007 22.5ZM29.632 22.5L29.5758 23.5687L26.8195 21.9562C26.632 19.95 25.5633 18.2062 24.007 17.1V13.8937C27.3258 15.3562 29.632 18.6562 29.632 22.5ZM25.8258 30.0563C24.2695 31.2 22.3383 31.875 20.257 31.875C18.1758 31.875 16.2445 31.2 14.6883 30L17.4445 28.4438C18.307 28.8375 19.2633 29.0625 20.257 29.0625C21.2508 29.0625 22.1883 28.8375 23.0695 28.4438L25.8258 30.0563ZM10.9383 23.55L10.882 22.5C10.882 18.6562 13.1883 15.3562 16.507 13.9125V17.1187C14.9508 18.2062 13.882 19.95 13.6945 21.9375L10.9383 23.55Z" fill="white"/>
</svg>
